<?xml version="1.0" standalone="no"?>
<!DOCTYPE svg PUBLIC "-//W3C//DTD SVG 20010904//EN"
 "http://www.w3.org/TR/2001/REC-SVG-20010904/DTD/svg10.dtd">
<svg version="1.0" xmlns="http://www.w3.org/2000/svg"
 width="260.000000pt" height="260.000000pt" viewBox="0 0 260.000000 260.000000"
 preserveAspectRatio="xMidYMid meet">
<metadata>
Created by potrace 1.11, written by Peter Selinger 2001-2013
</metadata>
<g transform="translate(0.000000,260.000000) scale(0.100000,-0.100000)"
fill="#000000" stroke="none">
<path d="M1170 2386 c-208 -46 -390 -240 -418 -446 -8 -59 -8 -1222 0 -1280
26 -187 177 -366 364 -431 324 -112 681 112 721 451 4 30 7 201 7 380 l0 325
-72 3 -73 3 5 -75 c7 -125 2 -131 -97 -97 -32 11 -57 17 -57 14 0 -3 -6 -1
-13 5 -7 6 -24 13 -37 15 -14 2 -32 7 -40 10 -19 7 -183 61 -192 63 -5 1 -11
3 -15 4 -5 1 -12 3 -18 4 -5 1 -17 5 -25 9 -8 3 -46 16 -85 27 -38 12 -83 27
-100 33 -16 7 -32 12 -35 12 -3 1 -22 7 -43 14 l-39 13 4 252 c4 250 4 251 31
309 49 102 160 195 253 213 22 4 34 12 35 23 0 9 2 27 4 41 13 101 14 120 2
119 -7 0 -37 -6 -67 -13z"/>
</g>
</svg>
